# xmcd
#
# Track frame offsets:
#	150
#	18210
#	36202
#	53792
#	72321
#	89932
#	109249
#	127346
#	143308
#	160780
#	179867
#	198751
#	217658
#
# Disc length: 3200 seconds
#
# Revision: 3
# Processed by: cddbd v1.5.2PL0 Copyright (c) Steve Scherf et al.
# Submitted via: EasyCDDAExtractor 15.3.0.1
#
DISCID=ba0c7e0d
DTITLE=Marta Sanchez - Soy Yo
DYEAR=2002
DGENRE=Latin
TTITLE0=Sigo Intentando
TTITLE1=Soy Yo
TTITLE2=En Tus Brazos
TTITLE3=Amor Cobarde
TTITLE4=Noche Tras Dia
TTITLE5=Como Un Angel
TTITLE6=Socorro
TTITLE7=Encontrandote
TTITLE8=Si Crees En Mi
TTITLE9=No Te Quiero Mas
TTITLE10=Secretos
TTITLE11=Tal Vez Fuiste Tu
TTITLE12=El Pais De Nunca Jamas
EXTD=YEAR: 2002
EXTT0=
EXTT1=
EXTT2=
EXTT3=
EXTT4=
EXTT5=
EXTT6=
EXTT7=
EXTT8=
EXTT9=
EXTT10=
EXTT11=
EXTT12=
PLAYORDER=
